<svg xmlns="http://www.w3.org/2000/svg" width="413.923" height="159.325" viewBox="0 0 413.923 159.325">
  <g id="logo2.0" transform="translate(-48 -175.938)">
    <path id="Path_1" data-name="Path 1" d="M53.784.008a53.784,53.784,0,1,0,53.784,53.784A53.784,53.784,0,0,0,53.784.008Zm0,99.477A45.692,45.692,0,1,1,99.477,53.792,45.693,45.693,0,0,1,53.784,99.484Z" transform="translate(200.9 175.93)" fill="#205dce"/>
    <path id="Path_2" data-name="Path 2" d="M-186.057,0h-19.7a1.739,1.739,0,0,1-1.272-.395,1.759,1.759,0,0,1-.393-1.278h0V-7.2a1.759,1.759,0,0,1,.393-1.278,1.739,1.739,0,0,1,1.272-.395h4.578V-24.49h-4.578a1.739,1.739,0,0,1-1.272-.395,1.759,1.759,0,0,1-.393-1.278h0v-5.623a1.759,1.759,0,0,1,.393-1.278,1.739,1.739,0,0,1,1.272-.395h19.7a1.739,1.739,0,0,1,1.272.395,1.759,1.759,0,0,1,.393,1.278h0v5.623a1.759,1.759,0,0,1-.393,1.278,1.739,1.739,0,0,1-1.272.395h-4.485V-8.876h4.485a1.739,1.739,0,0,1,1.272.395,1.759,1.759,0,0,1,.393,1.278h0v5.53a1.759,1.759,0,0,1-.393,1.278A1.739,1.739,0,0,1-186.057,0Zm22.8,0h-14.611a1.739,1.739,0,0,1-1.272-.395,1.759,1.759,0,0,1-.393-1.278h0V-7.11a1.759,1.759,0,0,1,.393-1.278,1.739,1.739,0,0,1,1.272-.395h12.438a1.061,1.061,0,0,0,.9-.395,1.527,1.527,0,0,0,.3-.953h0a1.836,1.836,0,0,0-.3-1.162,1.219,1.219,0,0,0-.9-.418h0l-6.936-.976a10.04,10.04,0,0,1-5.2-2.138q-1.965-1.673-1.965-5.576h0V-25.28a7.441,7.441,0,0,1,2.543-6.064,10.674,10.674,0,0,1,7.028-2.114h12.947a1.739,1.739,0,0,1,1.272.395,1.759,1.759,0,0,1,.393,1.278h0v5.53a1.759,1.759,0,0,1-.393,1.278,1.739,1.739,0,0,1-1.272.395h-10.773a1.127,1.127,0,0,0-.925.395,1.524,1.524,0,0,0-.324,1h0a1.62,1.62,0,0,0,.324,1.022,1.228,1.228,0,0,0,.925.465h0l6.889.929a10.178,10.178,0,0,1,5.225,2.138q1.988,1.673,1.988,5.576h0v4.879a7.41,7.41,0,0,1-2.566,6.064A10.692,10.692,0,0,1-163.262,0Zm26.679-23.7h0l-2.173,7.063h7.259l-2.173-7.063a1.768,1.768,0,0,0-.393-.6.706.706,0,0,0-.485-.186H-135.7a.706.706,0,0,0-.486.186A1.768,1.768,0,0,0-136.582-23.7Zm-2.636,15.521v6.506a1.759,1.759,0,0,1-.393,1.278A1.739,1.739,0,0,1-140.882,0h-6.8a1.739,1.739,0,0,1-1.272-.395,1.759,1.759,0,0,1-.393-1.278h0V-13.941a13.812,13.812,0,0,1,.439-3.206,35.485,35.485,0,0,1,1.364-4.229h0l4.023-10.549a2.179,2.179,0,0,1,.855-1.162,2.737,2.737,0,0,1,1.5-.372h12.438a2.643,2.643,0,0,1,1.456.372,2.179,2.179,0,0,1,.855,1.162h0l4.023,10.549a35.484,35.484,0,0,1,1.364,4.229,13.812,13.812,0,0,1,.439,3.206h0V-1.673a1.759,1.759,0,0,1-.393,1.278A1.739,1.739,0,0,1-122.248,0h-6.982a2,2,0,0,1-1.364-.395,1.642,1.642,0,0,1-.439-1.278h0V-8.179ZM-106.065,0h-7.167A1.739,1.739,0,0,1-114.5-.395a1.759,1.759,0,0,1-.393-1.278h0V-31.785a1.759,1.759,0,0,1,.393-1.278,1.739,1.739,0,0,1,1.272-.395h7.167a1.739,1.739,0,0,1,1.272.395,1.759,1.759,0,0,1,.393,1.278h0V-21.1h1.85l4.763-10.828a2.328,2.328,0,0,1,.879-1.185,2.657,2.657,0,0,1,1.433-.349h7.121a1.221,1.221,0,0,1,1.063.395,1.154,1.154,0,0,1-.046,1.139h0L-92.055-21.1a5.779,5.779,0,0,1,4.138,1.836,6.391,6.391,0,0,1,1.549,4.484h0v13.1a1.759,1.759,0,0,1-.393,1.278A1.739,1.739,0,0,1-88.032,0h-7.121a1.739,1.739,0,0,1-1.272-.395,1.759,1.759,0,0,1-.393-1.278h0v-9.062a1.694,1.694,0,0,0-.37-1.162,1.4,1.4,0,0,0-1.11-.418h-6.1V-1.673a1.759,1.759,0,0,1-.393,1.278A1.739,1.739,0,0,1-106.065,0Zm51.093,0H-69.537q-5.78,0-8.577-2.324t-2.8-7.156h0v-14.5q0-4.833,2.8-7.156t8.577-2.323h11.56a1.739,1.739,0,0,1,1.272.395,1.759,1.759,0,0,1,.393,1.278h0v5.623a1.759,1.759,0,0,1-.393,1.278,1.739,1.739,0,0,1-1.272.395h-9.618a3.264,3.264,0,0,0-2.127.581,2.144,2.144,0,0,0-.694,1.743h0V-11.06a2.415,2.415,0,0,0,.532,1.719,2.106,2.106,0,0,0,1.6.558H-63.8v-7.249a1.759,1.759,0,0,1,.393-1.278,1.739,1.739,0,0,1,1.272-.395h7.167a1.739,1.739,0,0,1,1.272.395,1.759,1.759,0,0,1,.393,1.278h0V-1.673A1.759,1.759,0,0,1-53.7-.395,1.739,1.739,0,0,1-54.972,0Zm21.223-25.094h-3.468v5.948h3.468a1.809,1.809,0,0,0,1.618-.627,2.756,2.756,0,0,0,.416-1.557h0v-1.58a2.756,2.756,0,0,0-.416-1.557,1.809,1.809,0,0,0-1.618-.627ZM-38.881,0H-46a1.739,1.739,0,0,1-1.272-.395,1.759,1.759,0,0,1-.393-1.278h0V-31.785a1.759,1.759,0,0,1,.393-1.278A1.739,1.739,0,0,1-46-33.458h15.4q5.179,0,7.144,2.161A8,8,0,0,1-21.5-25.7h0v2.138a8.544,8.544,0,0,1-.578,3.323,3.608,3.608,0,0,1-2.011,1.975h0a6.073,6.073,0,0,1,4.046,2.045,6.861,6.861,0,0,1,1.549,4.693h0v9.852a1.759,1.759,0,0,1-.393,1.278A1.739,1.739,0,0,1-20.155,0h-7.167a1.739,1.739,0,0,1-1.272-.395,1.759,1.759,0,0,1-.393-1.278h0v-7.11a2.389,2.389,0,0,0-.393-1.51,1.661,1.661,0,0,0-1.364-.488h-6.473v9.108A1.759,1.759,0,0,1-37.61-.395,1.739,1.739,0,0,1-38.881,0ZM-1.243-23.7h0l-2.173,7.063H3.843L1.67-23.7a1.768,1.768,0,0,0-.393-.6.706.706,0,0,0-.485-.186H-.365A.706.706,0,0,0-.85-24.3,1.768,1.768,0,0,0-1.243-23.7ZM-3.879-8.179v6.506A1.759,1.759,0,0,1-4.272-.395,1.739,1.739,0,0,1-5.543,0h-6.8a1.739,1.739,0,0,1-1.272-.395,1.759,1.759,0,0,1-.393-1.278h0V-13.941a13.812,13.812,0,0,1,.439-3.206A35.486,35.486,0,0,1-12.2-21.376h0l4.023-10.549a2.179,2.179,0,0,1,.855-1.162,2.737,2.737,0,0,1,1.5-.372H6.617a2.643,2.643,0,0,1,1.457.372,2.179,2.179,0,0,1,.855,1.162h0l4.023,10.549a35.486,35.486,0,0,1,1.364,4.229,13.812,13.812,0,0,1,.439,3.206h0V-1.673a1.759,1.759,0,0,1-.393,1.278A1.739,1.739,0,0,1,13.091,0H6.109A2,2,0,0,1,4.745-.395a1.642,1.642,0,0,1-.439-1.278h0V-8.179ZM29.043,0H22.107a1.739,1.739,0,0,1-1.272-.395,1.759,1.759,0,0,1-.393-1.278h0V-31.785a1.759,1.759,0,0,1,.393-1.278,1.739,1.739,0,0,1,1.272-.395h4.809a3.669,3.669,0,0,1,1.5.279,3.614,3.614,0,0,1,1.225.976h0l8.97,10.316v-9.9a1.759,1.759,0,0,1,.393-1.278,1.739,1.739,0,0,1,1.272-.395h6.936a1.739,1.739,0,0,1,1.272.395,1.759,1.759,0,0,1,.393,1.278h0V-1.673a1.759,1.759,0,0,1-.393,1.278A1.739,1.739,0,0,1,47.214,0H40.278a1.739,1.739,0,0,1-1.272-.395,1.759,1.759,0,0,1-.393-1.278h0V-7.389l-7.907-9.619V-1.673a1.759,1.759,0,0,1-.393,1.278A1.739,1.739,0,0,1,29.043,0Zm43.6,4.182H65.524a1.739,1.739,0,0,1-1.272-.395,1.759,1.759,0,0,1-.393-1.278h0V-.046q-5.364-.79-7.236-3.23A9.442,9.442,0,0,1,54.751-9.2h0V-24.629a11.443,11.443,0,0,1,.624-3.88,6.626,6.626,0,0,1,2.219-3,11.62,11.62,0,0,1,4.416-1.952,30.359,30.359,0,0,1,7.121-.7h0a30.057,30.057,0,0,1,7.1.7,11.61,11.61,0,0,1,4.393,1.952,6.626,6.626,0,0,1,2.219,3,11.443,11.443,0,0,1,.624,3.88h0V-9.2a12.3,12.3,0,0,1-.416,3.276,6.707,6.707,0,0,1-1.433,2.672,8.4,8.4,0,0,1-2.8,2A15.663,15.663,0,0,1,74.31-.046h0V2.509a1.759,1.759,0,0,1-.393,1.278A1.739,1.739,0,0,1,72.645,4.182Zm-7.4-27.092v12.686a2.014,2.014,0,0,0,.694,1.557q.694.627,3.19.627h0q2.5,0,3.19-.627a2.014,2.014,0,0,0,.694-1.557h0V-22.91a1.966,1.966,0,0,0-.694-1.51q-.694-.627-3.19-.627h0q-2.5,0-3.19.627a1.966,1.966,0,0,0-.694,1.51ZM109.035,0H97.013a2.94,2.94,0,0,1-1.457-.325,2.163,2.163,0,0,1-.9-1.208h0L90.123-12.919q-.416-1.022-.694-1.789t-.462-1.464a8.785,8.785,0,0,1-.254-1.464q-.069-.767-.069-1.882h0V-31.785a1.759,1.759,0,0,1,.393-1.278,1.739,1.739,0,0,1,1.272-.395H97.66A2.01,2.01,0,0,1,99-33.063a1.6,1.6,0,0,1,.462,1.278h0V-18.96a4.752,4.752,0,0,0,.092.929,6.752,6.752,0,0,0,.277.976h0l2.173,6.506a1.369,1.369,0,0,0,.324.627.82.82,0,0,0,.555.163h.509a.82.82,0,0,0,.555-.163,1.369,1.369,0,0,0,.324-.627h0l2.173-6.552a6.75,6.75,0,0,0,.277-.976,4.751,4.751,0,0,0,.092-.929h0V-31.785a1.759,1.759,0,0,1,.393-1.278,1.739,1.739,0,0,1,1.272-.395h7.259a1.739,1.739,0,0,1,1.272.395,1.759,1.759,0,0,1,.393,1.278h0v12.268q0,1.115-.069,1.882a8.784,8.784,0,0,1-.254,1.464q-.185.7-.462,1.464t-.694,1.789h0L111.393-1.534a2.163,2.163,0,0,1-.9,1.208A2.94,2.94,0,0,1,109.035,0Zm34.679,0h-19.7a1.739,1.739,0,0,1-1.272-.395,1.759,1.759,0,0,1-.393-1.278h0V-7.2a1.759,1.759,0,0,1,.393-1.278,1.739,1.739,0,0,1,1.272-.395h4.578V-24.49h-4.578a1.739,1.739,0,0,1-1.272-.395,1.759,1.759,0,0,1-.393-1.278h0v-5.623a1.759,1.759,0,0,1,.393-1.278,1.739,1.739,0,0,1,1.272-.395h19.7a1.739,1.739,0,0,1,1.272.395,1.759,1.759,0,0,1,.393,1.278h0v5.623a1.759,1.759,0,0,1-.393,1.278,1.739,1.739,0,0,1-1.272.395h-4.485V-8.876h4.485a1.739,1.739,0,0,1,1.272.395,1.759,1.759,0,0,1,.393,1.278h0v5.53a1.759,1.759,0,0,1-.393,1.278A1.739,1.739,0,0,1,143.713,0Zm22.8,0H151.9a1.739,1.739,0,0,1-1.272-.395,1.759,1.759,0,0,1-.393-1.278h0V-7.11a1.759,1.759,0,0,1,.393-1.278,1.739,1.739,0,0,1,1.272-.395h12.438a1.061,1.061,0,0,0,.9-.395,1.527,1.527,0,0,0,.3-.953h0a1.836,1.836,0,0,0-.3-1.162,1.219,1.219,0,0,0-.9-.418h0l-6.936-.976a10.04,10.04,0,0,1-5.2-2.138q-1.965-1.673-1.965-5.576h0V-25.28a7.441,7.441,0,0,1,2.543-6.064,10.674,10.674,0,0,1,7.028-2.114h12.947a1.739,1.739,0,0,1,1.272.395,1.759,1.759,0,0,1,.393,1.278h0v5.53a1.759,1.759,0,0,1-.393,1.278,1.739,1.739,0,0,1-1.272.395H161.977a1.127,1.127,0,0,0-.925.395,1.525,1.525,0,0,0-.324,1h0a1.62,1.62,0,0,0,.324,1.022,1.228,1.228,0,0,0,.925.465h0l6.889.929a10.178,10.178,0,0,1,5.225,2.138q1.988,1.673,1.988,5.576h0v4.879a7.41,7.41,0,0,1-2.566,6.064A10.692,10.692,0,0,1,166.508,0Zm29.87,0h-7.491a1.739,1.739,0,0,1-1.272-.395,1.759,1.759,0,0,1-.393-1.278h0V-24.49h-6.8a1.739,1.739,0,0,1-1.272-.395,1.759,1.759,0,0,1-.393-1.278h0v-5.623a1.759,1.759,0,0,1,.393-1.278,1.739,1.739,0,0,1,1.272-.395H204.84a1.739,1.739,0,0,1,1.272.395,1.759,1.759,0,0,1,.393,1.278h0v5.623a1.759,1.759,0,0,1-.393,1.278,1.739,1.739,0,0,1-1.272.395h-6.8V-1.673a1.759,1.759,0,0,1-.393,1.278A1.739,1.739,0,0,1,196.378,0Z" transform="translate(255.419 331.081)" fill="#333"/>
    <g id="Group_1" data-name="Group 1" transform="translate(224.334 203.631)">
      <path id="Path_3" data-name="Path 3" d="M72.082,22.763H18.969a3.584,3.584,0,0,0-3.794,3.794V64.494a3.584,3.584,0,0,0,3.794,3.794H72.082a3.584,3.584,0,0,0,3.794-3.794V26.557A3.584,3.584,0,0,0,72.082,22.763ZM68.288,60.7H22.763V30.35H68.288Z" transform="translate(-15.175 -22.763)" fill="#333"/>
      <path id="Path_4" data-name="Path 4" d="M27.256,20.789H2.649A2.93,2.93,0,0,1,0,17.657a2.93,2.93,0,0,1,2.649-3.133H27.256a2.93,2.93,0,0,1,2.649,3.133,2.93,2.93,0,0,1-2.649,3.133" transform="translate(15.422 35.563)" fill="#205dce"/>
      <path id="Path_5" data-name="Path 5" d="M346.3-81.588a3.107,3.107,0,0,1,2.245,5.344L334.013-61.708a2.344,2.344,0,0,1-3.278,0l-7.375-7.411c-3.064-2.922,1.461-7.446,4.382-4.382l4.1,4.1a.82.82,0,0,0,1.1,0l11.223-11.223a3.061,3.061,0,0,1,2.138-.962Z" transform="translate(-305.524 94.666)" fill="#205dce"/>
    </g>
  </g>
</svg>
