<svg fill="#fff" id="outline" height="512" viewBox="0 0 512 512" width="512" xmlns="http://www.w3.org/2000/svg">
  <path
    d="m472 32h-432a24.0275 24.0275 0 0 0 -24 24v288a24.0275 24.0275 0 0 0 24 24h160v64h-24a8.00008 8.00008 0 0 0 -8 8v32a8.00008 8.00008 0 0 0 8 8h160a8.00008 8.00008 0 0 0 8-8v-32a8.00008 8.00008 0 0 0 -8-8h-24v-64h160a24.0275 24.0275 0 0 0 24-24v-288a24.0275 24.0275 0 0 0 -24-24zm-432 16h432a8.00917 8.00917 0 0 1 8 8v24h-448v-24a8.00917 8.00917 0 0 1 8-8zm288 416h-144v-16h144zm-32-32h-80v-64h32v32a8 8 0 0 0 16 0v-32h32zm176-80h-432a8.00917 8.00917 0 0 1 -8-8v-248h448v248a8.00917 8.00917 0 0 1 -8 8z" />
  <circle cx="48" cy="64" r="8" />
  <circle cx="72" cy="64" r="8" />
  <circle cx="96" cy="64" r="8" />
  <path
    d="m264 201.86926a23.9433 23.9433 0 0 0 8-17.86926v-16a7.95 7.95 0 0 0 -1.14673-4.11145l.00708-.00427-24-40a8.00091 8.00091 0 0 0 -6.86035-3.88428h-144a8.00091 8.00091 0 0 0 -6.86035 3.88428l-24 40 .00708.00427a7.95 7.95 0 0 0 -1.14673 4.11145v16a23.9433 23.9433 0 0 0 8 17.86926v102.13074h-16v16h224v-16h-16zm-24-25.86926h16v8a8 8 0 0 1 -16 0zm9.87036-16h-35.74023l14.39987-24h6.94067zm-169.87036 24v-8h16v8a8 8 0 0 1 -16 0zm115.47-24h-13.33987l14.39987-24h13.33984zm-32 0h-13.33987l14.39987-24h13.33984zm-32 0h-13.33987l14.39987-24h13.33984zm-19.47 16h16v8a8 8 0 0 1 -16 0zm32 0h16v8a8 8 0 0 1 -16 0zm32 0h16v8a8 8 0 0 1 -16 0zm32 0h16v8a8 8 0 0 1 -16 0zm-107.4707-40h13.34057l-14.39987 24h-13.34036zm83.4707 168h-32v-64h32zm16 0v-72a8.00008 8.00008 0 0 0 -8-8h-48a8.00008 8.00008 0 0 0 -8 8v72h-48v-96a23.90124 23.90124 0 0 0 16-6.13074 23.94376 23.94376 0 0 0 32 0 23.94376 23.94376 0 0 0 32 0 23.94376 23.94376 0 0 0 32 0 23.94376 23.94376 0 0 0 32 0 23.90124 23.90124 0 0 0 16 6.13074v96z" />
  <path
    d="m352 192a8.00008 8.00008 0 0 0 8-8v-48a8.00008 8.00008 0 0 0 -8-8h-48a8.00008 8.00008 0 0 0 -8 8v48a8.00008 8.00008 0 0 0 8 8zm-40-48h32v32h-32z" />
  <path d="m376 136h32v16h-32z" />
  <path d="m424 136h16v16h-16z" />
  <path d="m376 168h72v16h-72z" />
  <path d="m304 208h24v16h-24z" />
  <path d="m344 208h104v16h-104z" />
  <path d="m304 240h88v16h-88z" />
  <path d="m408 240h40v16h-40z" />
  <path d="m304 272h56v16h-56z" />
</svg>
